<?xml version="1.0" encoding="UTF-8"?>
<svg id="Layer_1" xmlns="http://www.w3.org/2000/svg" width="656.74" height="81.85" viewBox="0 0 656.74 81.85">
  <defs>
    <style>
      .cls-1 {
        fill: #8cc240;
      }

      .cls-2 {
        fill: #1a3b66;
      }

      .cls-3 {
        fill: #d61b5e;
      }

      .cls-4 {
        fill: #4dbfed;
      }
    </style>
  </defs>
  <path class="cls-2" d="M243.44,34.5c-2.41,2.69-4.7,5.25-7,7.81-1.93,2.14-3.87,4.27-5.79,6.42-3.02,3.36-6.04,6.72-9.06,10.08-.76.84-1.56,1.65-2.28,2.53-.31.38-.45.29-.71,0-1.5-1.7-3.01-3.39-4.53-5.08-2.58-2.87-5.18-5.72-7.76-8.59-3.83-4.25-7.64-8.51-11.46-12.77-.07-.08-.16-.15-.34-.32,0,.35,0,.59,0,.83,0,15.22,0,30.44.01,45.66,0,.62-.15.78-.77.78-5.01-.03-10.02-.02-15.04,0-.53,0-.68-.14-.68-.68.01-26.84.01-53.68,0-80.51,0-.49.09-.67.62-.65,1.46.04,2.92.03,4.37,0,.38,0,.64.11.88.39,4.15,4.75,8.3,9.5,12.46,14.24,3.87,4.4,7.75,8.79,11.62,13.19,3.51,3.99,7.01,7.98,10.49,11.98.38.44.56.46.95.01,3.76-4.31,7.54-8.61,11.31-12.9,3.54-4.02,7.08-8.04,10.62-12.06,3.46-3.94,6.92-7.88,10.38-11.82.79-.9,1.61-1.79,2.4-2.7.2-.23.39-.33.69-.32,1.53.01,3.05.02,4.58,0,.45,0,.56.15.51.55-.02.11,0,.23,0,.34,0,26.68,0,53.36,0,80.04,0,1.03.12.9-.91.9-4.92,0-9.84,0-14.76.01-.55,0-.73-.11-.73-.7,0-7.65-.04-15.31-.06-22.96-.01-7.59,0-15.17,0-22.76,0-.25,0-.5,0-.93Z"/>
  <path class="cls-2" d="M640.32,51.23v-.92c0-16.49,0-32.99-.02-49.48,0-.64.11-.83.79-.82,4.99.03,9.98.03,14.97,0,.53,0,.67.13.67.67-.01,26.82-.02,53.63,0,80.45,0,.62-.17.75-.75.73-1.53-.04-3.05-.03-4.58,0-.52.01-.88-.15-1.25-.51-16.47-16.49-32.95-32.97-49.43-49.45-.18-.18-.34-.36-.54-.58-.2.31-.12.58-.13.83,0,16.27,0,32.53,0,48.8,0,1.03.13.9-.91.9-4.9,0-9.8,0-14.7.01-.59,0-.81-.11-.8-.77.02-26.79.02-53.59,0-80.38,0-.58.16-.72.72-.7,1.37.04,2.73.04,4.1,0,.5-.01.83.14,1.18.49,16.65,16.67,33.31,33.32,49.97,49.98.19.19.38.4.71.75Z"/>
  <path class="cls-1" d="M160.88,35.85c-.4-4.1-1.39-8.05-3.03-11.83-2.35-5.43-5.83-10.04-10.24-13.97-4.32-3.86-9.25-6.66-14.81-8.28-4.55-1.33-9.19-1.82-13.93-1.69-3.7.11-7.34.59-10.89,1.6-6.81,1.95-12.58,5.58-17.48,10.68-4.51,4.69-7.75,10.12-9.52,16.4-1.55,5.51-1.91,11.13-1.38,16.82.46,4.98,1.73,9.74,3.98,14.21,2.09,4.16,4.88,7.8,8.25,11.02,2.87,2.73,6.03,5.04,9.58,6.82,5.93,2.97,12.25,4.21,19.31,4.19,1.42.02,3.3-.11,5.18-.32,4.44-.51,8.69-1.67,12.72-3.62,4.61-2.24,8.6-5.31,12.08-9.09,4.17-4.53,7.14-9.72,8.83-15.65,1.62-5.67,1.94-11.45,1.36-17.29ZM142.69,51.8c-1.11,2.65-2.65,5.02-4.57,7.14-3.68,4.08-8.24,6.54-13.67,7.27-7.13.97-13.8-.17-19.52-4.85-4.81-3.95-7.68-9.07-8.74-15.21-.31-1.84-.46-3.7-.43-4.75.06-7.58,2.14-13.59,6.74-18.61,3.46-3.78,7.74-6.15,12.81-7.01,4.6-.77,9.15-.56,13.59.97,4.63,1.6,8.24,4.53,11.07,8.48,3.28,4.57,4.69,9.72,4.76,15.3.05,3.89-.55,7.65-2.04,11.26Z"/>
  <path class="cls-4" d="M358.31,35.85c-.4-4.1-1.39-8.05-3.03-11.83-2.35-5.43-5.83-10.04-10.24-13.97-4.32-3.86-9.25-6.66-14.81-8.28-4.55-1.33-9.19-1.82-13.93-1.69-3.7.11-7.34.59-10.89,1.6-6.81,1.95-12.58,5.58-17.48,10.68-4.51,4.69-7.75,10.12-9.52,16.4-1.55,5.51-1.91,11.13-1.38,16.82.46,4.98,1.73,9.74,3.98,14.21,2.09,4.16,4.88,7.8,8.25,11.02,2.87,2.73,6.03,5.04,9.58,6.82,5.93,2.97,12.25,4.21,19.31,4.19,1.42.02,3.3-.11,5.18-.32,4.44-.51,8.69-1.67,12.72-3.62,4.61-2.24,8.6-5.31,12.08-9.09,4.17-4.53,7.14-9.72,8.83-15.65,1.62-5.67,1.94-11.45,1.36-17.29ZM340.12,51.8c-1.11,2.65-2.65,5.02-4.57,7.14-3.68,4.08-8.24,6.54-13.67,7.27-7.13.97-13.8-.17-19.52-4.85-4.81-3.95-7.68-9.07-8.74-15.21-.31-1.84-.46-3.7-.43-4.75.06-7.58,2.14-13.59,6.74-18.61,3.46-3.78,7.74-6.15,12.81-7.01,4.6-.77,9.15-.56,13.59.97,4.63,1.6,8.24,4.53,11.07,8.48,3.28,4.57,4.69,9.72,4.76,15.3.05,3.89-.55,7.65-2.04,11.26Z"/>
  <path class="cls-3" d="M566.84,36.71c-.43-5.05-1.67-9.89-3.92-14.44-2.23-4.51-5.27-8.41-8.99-11.81-3.94-3.61-8.39-6.35-13.44-8.11-6.11-2.12-12.41-2.65-18.82-2.1-4.93.42-9.64,1.67-14.1,3.85-4.89,2.39-9.05,5.73-12.62,9.81-4.21,4.81-7.06,10.32-8.54,16.54-1.24,5.22-1.47,10.52-.89,15.84.59,5.44,2.17,10.57,4.9,15.33,2.15,3.74,4.85,7.02,8.04,9.92,3.01,2.75,6.35,5,10.06,6.69,5.59,2.56,11.49,3.62,17.61,3.61,1.22,0,2.45-.05,3.67-.14,4.11-.29,8.09-1.13,11.93-2.62,5.47-2.12,10.16-5.4,14.22-9.62,4.73-4.92,8.01-10.65,9.71-17.27,1.3-5.08,1.62-10.25,1.17-15.48ZM548.81,51.12c-3.12,7.74-8.58,13-16.9,14.8-5.94,1.29-11.76.78-17.25-2.01-4.26-2.16-7.43-5.49-9.76-9.63-2.1-3.74-3.06-7.78-3.22-12.05-.17-4.34.37-8.55,2.19-12.5,3.87-8.38,10.3-13.3,19.6-14.25.88-.09,1.77-.01,2.66-.01,4.93-.09,9.57.99,13.67,3.82,5.59,3.87,9,9.22,10.28,15.88,1.04,5.41.81,10.81-1.26,15.94Z"/>
  <path class="cls-2" d="M0,41.44c-.03-7.26,1.25-13.6,4.31-19.53,3.57-6.92,8.74-12.36,15.38-16.37C24.86,2.42,30.49.73,36.49.22c6.76-.58,13.37.07,19.81,2.24,5.29,1.78,10.03,4.56,14.27,8.18.25.21.36.3.08.61-3.46,3.76-6.91,7.53-10.35,11.31-.28.31-.44.33-.76.08-4.05-3.13-8.61-5.12-13.68-5.88-5.75-.86-11.38-.46-16.69,2.12-4.29,2.08-7.57,5.28-9.86,9.47-1.99,3.64-2.84,7.57-2.9,11.7-.06,3.88.42,7.67,1.91,11.27,2.71,6.55,7.52,10.83,14.28,12.93,3.97,1.23,8.05,1.37,12.15.94,5.5-.58,10.46-2.56,14.81-6,.34-.27.51-.21.77.08,3.33,3.66,6.67,7.32,10.01,10.97.59.64.59.63-.07,1.19-6.44,5.46-13.86,8.75-22.21,9.89-7.6,1.04-15.08.57-22.34-2.14-4.78-1.79-9-4.48-12.75-7.93-3.46-3.18-6.32-6.82-8.51-10.99-2.28-4.35-3.59-9-4.17-13.86-.22-1.85-.33-3.71-.29-4.97Z"/>
  <path class="cls-2" d="M397.92.02c11.55,0,23.1,0,34.65-.01.61,0,.78.14.78.77-.03,4.62-.03,9.25,0,13.87,0,.65-.2.76-.79.76-8.57-.02-17.13,0-25.7-.03-.59,0-.75.13-.75.74.02,21.62.01,43.24.03,64.86,0,.72-.19.88-.89.88-4.9-.03-9.8-.03-14.69,0-.66,0-.86-.12-.86-.83.02-21.6.02-43.19.04-64.79,0-.68-.14-.86-.84-.85-8.57.03-17.13.01-25.7.03-.59,0-.77-.13-.76-.74.03-4.62.03-9.25,0-13.87,0-.6.12-.79.77-.79,11.57.02,23.15.02,34.72.02Z"/>
  <path class="cls-2" d="M467.92,40.96c0,13.35,0,26.7.02,40.06,0,.72-.21.83-.86.83-4.97-.03-9.93-.02-14.9,0-.54,0-.67-.14-.67-.67.01-26.84.01-53.68,0-80.52,0-.57.19-.65.69-.65,5.01.02,10.03.02,15.04,0,.56,0,.71.12.71.7-.02,13.42-.01,26.84-.01,40.26Z"/>
</svg>